<svg width="657" height="633" viewBox="0 0 657 633" fill="none" xmlns="http://www.w3.org/2000/svg">
<path d="M273.891 347.805L328.502 379.323L383.114 347.805" stroke="#0D1A7E" stroke-miterlimit="10"/>
<path d="M383.112 284.733L328.5 253.197L273.889 284.733L219.277 316.268V442.393L273.889 473.928L328.5 505.447L383.112 473.928L437.724 442.393V316.268L383.112 284.733ZM383.112 410.857L328.5 442.393L273.889 410.857V347.803L328.5 316.268L383.112 347.803V410.857Z" fill="#0D1A7E" stroke="#0D1A7E" stroke-miterlimit="10"/>
<path d="M383.114 410.859L328.502 442.394L273.891 410.859V347.805L328.502 316.27L383.114 347.805V410.859Z" stroke="#0D1A7E" stroke-miterlimit="10"/>
<path d="M437.724 442.393L383.113 473.929L328.501 505.447L273.89 473.929L219.278 442.393V316.269L273.89 284.733L328.501 253.198L383.113 284.733L437.724 316.269V442.393ZM437.724 442.393L383.113 473.929L328.501 505.447L273.89 473.929L219.278 442.393V316.269L273.89 284.733L328.501 253.198L383.113 284.733L437.724 316.269V442.393ZM437.724 442.393L383.113 473.929L328.501 505.447L273.89 473.929L219.278 442.393V316.269L273.89 284.733L328.501 253.198L383.113 284.733L437.724 316.269V442.393ZM110.055 253.198L164.667 221.679L273.89 158.608L328.501 127.09L383.113 158.608L492.336 221.679L546.948 253.198V505.447L437.724 568.518L383.113 600.054L328.501 631.572L273.89 600.054L219.278 568.518V505.447L328.501 568.518L437.724 505.447L492.336 473.929V284.733L437.724 253.198L383.113 221.679L328.501 190.144L273.89 221.679L219.278 253.198L164.667 284.733V600.054L110.055 631.572V253.198ZM219.278 316.269L273.89 284.733L328.501 253.198L383.113 284.733L437.724 316.269V442.393L383.113 473.929L328.501 505.447L273.89 473.929L219.278 442.393V316.269ZM656.171 568.518L601.559 600.054V221.679L492.336 158.608L437.724 127.09L328.501 64.0189L219.278 127.09L164.667 158.608L55.4436 221.679V600.054L0.832031 631.572V190.144L55.4436 158.608L110.055 127.09L219.278 64.0189L273.89 32.4836L328.501 0.964844L383.113 32.4836L437.724 64.0189L546.948 127.09L601.559 158.608L656.171 190.144V568.518ZM437.724 442.393L383.113 473.929L328.501 505.447L273.89 473.929L219.278 442.393V316.269L273.89 284.733L328.501 253.198L383.113 284.733L437.724 316.269V442.393ZM437.724 442.393L383.113 473.929L328.501 505.447L273.89 473.929L219.278 442.393V316.269L273.89 284.733L328.501 253.198L383.113 284.733L437.724 316.269V442.393ZM437.724 442.393L383.113 473.929L328.501 505.447L273.89 473.929L219.278 442.393V316.269L273.89 284.733L328.501 253.198L383.113 284.733L437.724 316.269V442.393Z" stroke="#0D1A7E" stroke-miterlimit="10"/>
<path d="M546.947 253.198V505.448L437.724 568.518L383.112 600.054L328.501 631.572L273.889 600.054L219.278 568.518V505.448L328.501 568.518L437.724 505.448L492.335 473.929V284.733L437.724 253.198L383.112 221.679L328.501 190.144L273.889 221.679L219.278 253.198L164.666 284.733V600.054L110.055 631.572V253.198L164.666 221.679L273.889 158.609L328.501 127.09L383.112 158.609L492.335 221.679L546.947 253.198Z" fill="#0D1A7E" stroke="#0D1A7E" stroke-miterlimit="10"/>
<path d="M656.171 190.144V600.037L601.559 631.572V221.679L492.336 158.608L437.724 127.09L328.501 64.0189L219.278 127.09L164.667 158.608L55.4436 221.679V600.054L0.832031 631.572V190.144L55.4436 158.608L110.055 127.09L219.278 64.0189L273.89 32.4836L328.501 0.964844L383.113 32.4836L437.724 64.0189L546.948 127.09L601.559 158.608L656.171 190.144Z" fill="#0D1A7E" stroke="#0D1A7E" stroke-miterlimit="10"/>
<path d="M328.5 442.393V379.322" stroke="#0D1A7E" stroke-miterlimit="10"/>
</svg>
